<mxfile host="drawio-plugin" modified="2021-07-05T14:38:23.471Z" agent="5.0 (Macintosh; Intel Mac OS X 11_2_2) AppleWebKit/537.36 (KHTML, like Gecko) Chrome/87.0.4280.141 Safari/537.36" version="14.7.4" etag="c2Slp01_FDbDHsoa7h_6" type="embed"><diagram id="IdIX_S3RQZsmJOGykxgf" name="outputs-and-featuresMaps"><mxGraphModel dx="1296" dy="703" grid="1" gridSize="10" guides="1" tooltips="1" connect="1" arrows="1" fold="1" page="1" pageScale="1" pageWidth="850" pageHeight="1100" math="0" shadow="0"><root><mxCell id="0"/><mxCell id="1" parent="0"/><mxCell id="11" value="" style="edgeStyle=orthogonalEdgeStyle;rounded=0;orthogonalLoop=1;jettySize=auto;html=1;" edge="1" parent="1" source="2" target="7"><mxGeometry relative="1" as="geometry"/></mxCell><mxCell id="2" value="conv1" style="rounded=1;whiteSpace=wrap;html=1;strokeWidth=3;" vertex="1" parent="1"><mxGeometry x="60" y="80" width="120" height="60" as="geometry"/></mxCell><mxCell id="13" value="" style="edgeStyle=orthogonalEdgeStyle;rounded=0;orthogonalLoop=1;jettySize=auto;html=1;" edge="1" parent="1" source="3" target="10"><mxGeometry relative="1" as="geometry"/></mxCell><mxCell id="3" value="conv2" style="rounded=1;whiteSpace=wrap;html=1;strokeWidth=3;" vertex="1" parent="1"><mxGeometry x="60" y="320" width="120" height="60" as="geometry"/></mxCell><mxCell id="15" value="" style="edgeStyle=orthogonalEdgeStyle;rounded=0;orthogonalLoop=1;jettySize=auto;html=1;" edge="1" parent="1" source="4" target="9"><mxGeometry relative="1" as="geometry"/></mxCell><mxCell id="4" value="conv3" style="rounded=1;whiteSpace=wrap;html=1;strokeWidth=3;" vertex="1" parent="1"><mxGeometry x="60" y="580" width="120" height="60" as="geometry"/></mxCell><mxCell id="17" value="" style="edgeStyle=orthogonalEdgeStyle;rounded=0;orthogonalLoop=1;jettySize=auto;html=1;" edge="1" parent="1" source="5" target="8"><mxGeometry relative="1" as="geometry"/></mxCell><mxCell id="5" value="conv4" style="rounded=1;whiteSpace=wrap;html=1;strokeWidth=3;" vertex="1" parent="1"><mxGeometry x="60" y="860" width="120" height="60" as="geometry"/></mxCell><mxCell id="12" value="" style="edgeStyle=orthogonalEdgeStyle;rounded=0;orthogonalLoop=1;jettySize=auto;html=1;" edge="1" parent="1" source="7" target="3"><mxGeometry relative="1" as="geometry"/></mxCell><mxCell id="7" value="MaxPool(4)" style="rounded=1;whiteSpace=wrap;html=1;strokeWidth=1;" vertex="1" parent="1"><mxGeometry x="60" y="210" width="120" height="60" as="geometry"/></mxCell><mxCell id="60" value="" style="edgeStyle=orthogonalEdgeStyle;rounded=0;orthogonalLoop=1;jettySize=auto;html=1;" edge="1" parent="1" source="8" target="59"><mxGeometry relative="1" as="geometry"/></mxCell><mxCell id="8" value="MaxPool(4)" style="rounded=1;whiteSpace=wrap;html=1;strokeWidth=1;" vertex="1" parent="1"><mxGeometry x="60" y="990" width="120" height="60" as="geometry"/></mxCell><mxCell id="16" value="" style="edgeStyle=orthogonalEdgeStyle;rounded=0;orthogonalLoop=1;jettySize=auto;html=1;" edge="1" parent="1" source="9" target="5"><mxGeometry relative="1" as="geometry"/></mxCell><mxCell id="9" value="MaxPool(4)" style="rounded=1;whiteSpace=wrap;html=1;strokeWidth=1;" vertex="1" parent="1"><mxGeometry x="60" y="720" width="120" height="60" as="geometry"/></mxCell><mxCell id="14" value="" style="edgeStyle=orthogonalEdgeStyle;rounded=0;orthogonalLoop=1;jettySize=auto;html=1;" edge="1" parent="1" source="10" target="4"><mxGeometry relative="1" as="geometry"/></mxCell><mxCell id="10" value="MaxPool(4)" style="rounded=1;whiteSpace=wrap;html=1;strokeWidth=1;" vertex="1" parent="1"><mxGeometry x="60" y="450" width="120" height="60" as="geometry"/></mxCell><mxCell id="18" value="&lt;font style=&quot;font-size: 14px&quot;&gt;slice_mode=False&lt;br&gt;&lt;br&gt;input: (1, 1, 1345050)&lt;br&gt;&lt;/font&gt;" style="text;html=1;align=center;verticalAlign=middle;resizable=0;points=[];autosize=1;strokeColor=none;" vertex="1" parent="1"><mxGeometry x="45" y="15" width="150" height="50" as="geometry"/></mxCell><mxCell id="21" value="&lt;font style=&quot;font-size: 14px&quot;&gt;(1, 128, 763)&lt;/font&gt;" style="text;html=1;align=center;verticalAlign=middle;resizable=0;points=[];autosize=1;strokeColor=none;" vertex="1" parent="1"><mxGeometry x="145" y="280" width="90" height="20" as="geometry"/></mxCell><mxCell id="22" value="&lt;font style=&quot;font-size: 14px&quot;&gt;(1, 128, 190)&lt;/font&gt;" style="text;html=1;align=center;verticalAlign=middle;resizable=0;points=[];autosize=1;strokeColor=none;" vertex="1" parent="1"><mxGeometry x="145" y="520" width="90" height="20" as="geometry"/></mxCell><mxCell id="27" value="&lt;font style=&quot;font-size: 14px&quot;&gt;(1, 256, 47)&lt;/font&gt;" style="text;html=1;align=center;verticalAlign=middle;resizable=0;points=[];autosize=1;strokeColor=none;" vertex="1" parent="1"><mxGeometry x="140" y="790" width="90" height="20" as="geometry"/></mxCell><mxCell id="29" value="&lt;font style=&quot;font-size: 14px&quot;&gt;(1, 256, 11)&lt;/font&gt;" style="text;html=1;align=center;verticalAlign=middle;resizable=0;points=[];autosize=1;strokeColor=none;" vertex="1" parent="1"><mxGeometry x="140" y="1060" width="90" height="20" as="geometry"/></mxCell><mxCell id="30" value="&lt;font style=&quot;font-size: 14px&quot;&gt;slice_mode=True&lt;br&gt;&lt;br&gt;input: (1, 1, 22050)&lt;br&gt;&lt;/font&gt;" style="text;html=1;align=center;verticalAlign=middle;resizable=0;points=[];autosize=1;strokeColor=none;" vertex="1" parent="1"><mxGeometry x="560" y="15" width="130" height="50" as="geometry"/></mxCell><mxCell id="31" value="" style="edgeStyle=orthogonalEdgeStyle;rounded=0;orthogonalLoop=1;jettySize=auto;html=1;" edge="1" parent="1" source="32" target="40"><mxGeometry relative="1" as="geometry"/></mxCell><mxCell id="32" value="conv1" style="rounded=1;whiteSpace=wrap;html=1;strokeWidth=3;" vertex="1" parent="1"><mxGeometry x="570" y="80" width="120" height="60" as="geometry"/></mxCell><mxCell id="33" value="" style="edgeStyle=orthogonalEdgeStyle;rounded=0;orthogonalLoop=1;jettySize=auto;html=1;" edge="1" parent="1" source="34" target="45"><mxGeometry relative="1" as="geometry"/></mxCell><mxCell id="34" value="conv2" style="rounded=1;whiteSpace=wrap;html=1;strokeWidth=3;" vertex="1" parent="1"><mxGeometry x="570" y="320" width="120" height="60" as="geometry"/></mxCell><mxCell id="35" value="" style="edgeStyle=orthogonalEdgeStyle;rounded=0;orthogonalLoop=1;jettySize=auto;html=1;" edge="1" parent="1" source="36" target="43"><mxGeometry relative="1" as="geometry"/></mxCell><mxCell id="36" value="conv3" style="rounded=1;whiteSpace=wrap;html=1;strokeWidth=3;" vertex="1" parent="1"><mxGeometry x="570" y="580" width="120" height="60" as="geometry"/></mxCell><mxCell id="37" value="" style="edgeStyle=orthogonalEdgeStyle;rounded=0;orthogonalLoop=1;jettySize=auto;html=1;" edge="1" parent="1" source="38" target="41"><mxGeometry relative="1" as="geometry"/></mxCell><mxCell id="38" value="conv4" style="rounded=1;whiteSpace=wrap;html=1;strokeWidth=3;" vertex="1" parent="1"><mxGeometry x="570" y="860" width="120" height="60" as="geometry"/></mxCell><mxCell id="39" value="" style="edgeStyle=orthogonalEdgeStyle;rounded=0;orthogonalLoop=1;jettySize=auto;html=1;" edge="1" parent="1" source="40" target="34"><mxGeometry relative="1" as="geometry"/></mxCell><mxCell id="40" value="MaxPool(4)" style="rounded=1;whiteSpace=wrap;html=1;strokeWidth=1;" vertex="1" parent="1"><mxGeometry x="570" y="210" width="120" height="60" as="geometry"/></mxCell><mxCell id="41" value="MaxPool(4)" style="rounded=1;whiteSpace=wrap;html=1;strokeWidth=1;" vertex="1" parent="1"><mxGeometry x="570" y="990" width="120" height="60" as="geometry"/></mxCell><mxCell id="42" value="" style="edgeStyle=orthogonalEdgeStyle;rounded=0;orthogonalLoop=1;jettySize=auto;html=1;" edge="1" parent="1" source="43" target="38"><mxGeometry relative="1" as="geometry"/></mxCell><mxCell id="43" value="MaxPool(4)" style="rounded=1;whiteSpace=wrap;html=1;strokeWidth=1;" vertex="1" parent="1"><mxGeometry x="570" y="720" width="120" height="60" as="geometry"/></mxCell><mxCell id="44" value="" style="edgeStyle=orthogonalEdgeStyle;rounded=0;orthogonalLoop=1;jettySize=auto;html=1;" edge="1" parent="1" source="45" target="36"><mxGeometry relative="1" as="geometry"/></mxCell><mxCell id="45" value="MaxPool(4)" style="rounded=1;whiteSpace=wrap;html=1;strokeWidth=1;" vertex="1" parent="1"><mxGeometry x="570" y="450" width="120" height="60" as="geometry"/></mxCell><mxCell id="47" value="&lt;font style=&quot;font-size: 14px&quot;&gt;(1, 128, 49)&lt;/font&gt;" style="text;html=1;align=center;verticalAlign=middle;resizable=0;points=[];autosize=1;strokeColor=none;" vertex="1" parent="1"><mxGeometry x="650" y="280" width="90" height="20" as="geometry"/></mxCell><mxCell id="49" value="&lt;font style=&quot;font-size: 14px&quot;&gt;(1, 128, 11)&lt;/font&gt;" style="text;html=1;align=center;verticalAlign=middle;resizable=0;points=[];autosize=1;strokeColor=none;" vertex="1" parent="1"><mxGeometry x="650" y="520" width="90" height="20" as="geometry"/></mxCell><mxCell id="51" value="&lt;font style=&quot;font-size: 14px&quot;&gt;(1, 256, 4)&lt;/font&gt;" style="text;html=1;align=center;verticalAlign=middle;resizable=0;points=[];autosize=1;strokeColor=none;" vertex="1" parent="1"><mxGeometry x="655" y="790" width="80" height="20" as="geometry"/></mxCell><mxCell id="53" value="&lt;font style=&quot;font-size: 14px&quot;&gt;(1, 256, 1)&lt;/font&gt;" style="text;html=1;align=center;verticalAlign=middle;resizable=0;points=[];autosize=1;strokeColor=none;" vertex="1" parent="1"><mxGeometry x="655" y="1070" width="80" height="20" as="geometry"/></mxCell><mxCell id="66" style="edgeStyle=orthogonalEdgeStyle;rounded=0;orthogonalLoop=1;jettySize=auto;html=1;entryX=1;entryY=0.5;entryDx=0;entryDy=0;" edge="1" parent="1" source="54" target="2"><mxGeometry relative="1" as="geometry"/></mxCell><mxCell id="54" value="kernel_size=880&lt;br&gt;kernel_stride=440" style="text;html=1;align=center;verticalAlign=middle;resizable=0;points=[];autosize=1;strokeColor=none;" vertex="1" parent="1"><mxGeometry x="250" y="95" width="110" height="30" as="geometry"/></mxCell><mxCell id="67" value="" style="edgeStyle=orthogonalEdgeStyle;rounded=0;orthogonalLoop=1;jettySize=auto;html=1;" edge="1" parent="1" source="55" target="3"><mxGeometry relative="1" as="geometry"/></mxCell><mxCell id="74" style="edgeStyle=orthogonalEdgeStyle;rounded=0;orthogonalLoop=1;jettySize=auto;html=1;" edge="1" parent="1" source="55" target="34"><mxGeometry relative="1" as="geometry"/></mxCell><mxCell id="55" value="kernel_size=3&lt;br&gt;kernel_stride=1" style="text;html=1;align=center;verticalAlign=middle;resizable=0;points=[];autosize=1;strokeColor=none;" vertex="1" parent="1"><mxGeometry x="325" y="335" width="100" height="30" as="geometry"/></mxCell><mxCell id="68" value="" style="edgeStyle=orthogonalEdgeStyle;rounded=0;orthogonalLoop=1;jettySize=auto;html=1;" edge="1" parent="1" source="56" target="4"><mxGeometry relative="1" as="geometry"/></mxCell><mxCell id="76" style="edgeStyle=orthogonalEdgeStyle;rounded=0;orthogonalLoop=1;jettySize=auto;html=1;entryX=0;entryY=0.5;entryDx=0;entryDy=0;" edge="1" parent="1" source="56" target="36"><mxGeometry relative="1" as="geometry"/></mxCell><mxCell id="56" value="kernel_size=3&lt;br&gt;kernel_stride=1" style="text;html=1;align=center;verticalAlign=middle;resizable=0;points=[];autosize=1;strokeColor=none;" vertex="1" parent="1"><mxGeometry x="325" y="595" width="100" height="30" as="geometry"/></mxCell><mxCell id="71" value="" style="edgeStyle=orthogonalEdgeStyle;rounded=0;orthogonalLoop=1;jettySize=auto;html=1;" edge="1" parent="1" source="57" target="5"><mxGeometry relative="1" as="geometry"/></mxCell><mxCell id="78" style="edgeStyle=orthogonalEdgeStyle;rounded=0;orthogonalLoop=1;jettySize=auto;html=1;entryX=0;entryY=0.5;entryDx=0;entryDy=0;" edge="1" parent="1" source="57" target="38"><mxGeometry relative="1" as="geometry"/></mxCell><mxCell id="57" value="kernel_size=3&lt;br&gt;kernel_stride=1" style="text;html=1;align=center;verticalAlign=middle;resizable=0;points=[];autosize=1;strokeColor=none;" vertex="1" parent="1"><mxGeometry x="325" y="875" width="100" height="30" as="geometry"/></mxCell><mxCell id="73" value="" style="edgeStyle=orthogonalEdgeStyle;rounded=0;orthogonalLoop=1;jettySize=auto;html=1;" edge="1" parent="1" source="58" target="32"><mxGeometry relative="1" as="geometry"/></mxCell><mxCell id="58" value="kernel_size=220&lt;br&gt;kernel_stride=110" style="text;html=1;align=center;verticalAlign=middle;resizable=0;points=[];autosize=1;strokeColor=none;" vertex="1" parent="1"><mxGeometry x="400" y="95" width="110" height="30" as="geometry"/></mxCell><mxCell id="59" value="AvgPool" style="rounded=1;whiteSpace=wrap;html=1;strokeWidth=1;" vertex="1" parent="1"><mxGeometry x="60" y="1130" width="120" height="60" as="geometry"/></mxCell><mxCell id="61" value="&lt;font style=&quot;font-size: 14px&quot;&gt;(1, 256, 1)&lt;/font&gt;" style="text;html=1;align=center;verticalAlign=middle;resizable=0;points=[];autosize=1;strokeColor=none;" vertex="1" parent="1"><mxGeometry x="145" y="1210" width="80" height="20" as="geometry"/></mxCell><mxCell id="62" value="&lt;font style=&quot;font-size: 14px&quot;&gt;output: (1, 8*16, 3055)&lt;br&gt;weight: (128, 1, 880)&lt;br&gt;bias: (128,)&lt;br&gt;&lt;/font&gt;" style="text;html=1;align=center;verticalAlign=middle;resizable=0;points=[];autosize=1;strokeColor=none;" vertex="1" parent="1"><mxGeometry x="140" y="150" width="150" height="50" as="geometry"/></mxCell><mxCell id="64" value="&lt;font style=&quot;font-size: 14px&quot;&gt;output: (1, 128, 761)&lt;br&gt;weight: (128, 128, 3)&lt;br&gt;bias: (128,)&lt;br&gt;&lt;/font&gt;" style="text;html=1;align=center;verticalAlign=middle;resizable=0;points=[];autosize=1;strokeColor=none;" vertex="1" parent="1"><mxGeometry x="140" y="390" width="140" height="50" as="geometry"/></mxCell><mxCell id="69" value="&lt;font style=&quot;font-size: 14px&quot;&gt;output: (1, 256, 188)&lt;br&gt;weight: (256, 128, 3)&lt;br&gt;bias: (256,)&lt;br&gt;&lt;/font&gt;" style="text;html=1;align=center;verticalAlign=middle;resizable=0;points=[];autosize=1;strokeColor=none;" vertex="1" parent="1"><mxGeometry x="145" y="650" width="140" height="50" as="geometry"/></mxCell><mxCell id="70" value="&lt;font style=&quot;font-size: 14px&quot;&gt;output: (1, 256, 45)&lt;br&gt;weight: (256, 256, 3)&lt;br&gt;bias: (256,)&lt;br&gt;&lt;/font&gt;" style="text;html=1;align=center;verticalAlign=middle;resizable=0;points=[];autosize=1;strokeColor=none;" vertex="1" parent="1"><mxGeometry x="150" y="930" width="140" height="50" as="geometry"/></mxCell><mxCell id="72" value="&lt;font style=&quot;font-size: 14px&quot;&gt;output: (1, 8*16, 199)&lt;br&gt;weight: (128, 1, 220)&lt;br&gt;bias: (128,)&lt;br&gt;&lt;/font&gt;" style="text;html=1;align=center;verticalAlign=middle;resizable=0;points=[];autosize=1;strokeColor=none;" vertex="1" parent="1"><mxGeometry x="440" y="150" width="150" height="50" as="geometry"/></mxCell><mxCell id="75" value="&lt;font style=&quot;font-size: 14px&quot;&gt;output: (1, 128, 47)&lt;br&gt;weight: (128, 128, 3)&lt;br&gt;bias: (128,)&lt;br&gt;&lt;/font&gt;" style="text;html=1;align=center;verticalAlign=middle;resizable=0;points=[];autosize=1;strokeColor=none;" vertex="1" parent="1"><mxGeometry x="440" y="390" width="140" height="50" as="geometry"/></mxCell><mxCell id="77" value="&lt;font style=&quot;font-size: 14px&quot;&gt;output: (1, 256, 9)&lt;br&gt;weight: (256, 128, 3)&lt;br&gt;bias: (256,)&lt;br&gt;&lt;/font&gt;" style="text;html=1;align=center;verticalAlign=middle;resizable=0;points=[];autosize=1;strokeColor=none;" vertex="1" parent="1"><mxGeometry x="445" y="650" width="140" height="50" as="geometry"/></mxCell><mxCell id="79" value="&lt;font style=&quot;font-size: 14px&quot;&gt;output: (1, 256,2)&lt;br&gt;weight: (256, 256, 3)&lt;br&gt;bias: (256,)&lt;br&gt;&lt;/font&gt;" style="text;html=1;align=center;verticalAlign=middle;resizable=0;points=[];autosize=1;strokeColor=none;" vertex="1" parent="1"><mxGeometry x="445" y="930" width="140" height="50" as="geometry"/></mxCell></root></mxGraphModel></diagram></mxfile>